<svg width="14" height="14" viewBox="0 0 14 14" fill="none" xmlns="http://www.w3.org/2000/svg">
<path d="M0.25 13.75L1.20347 10.2833C0.615109 9.26856 0.305953 8.11825 0.306518 6.93869C0.308214 3.25094 3.32347 0.25 7.02826 0.25C8.82611 0.250563 10.5138 0.9475 11.7832 2.212C13.052 3.4765 13.7506 5.15725 13.75 6.94488C13.7483 10.6332 10.733 13.6341 7.02826 13.6341C5.90354 13.6336 4.79521 13.3529 3.81349 12.8196L0.25 13.75ZM3.97852 11.6086C4.92577 12.1683 5.83007 12.5035 7.026 12.5041C10.1051 12.5041 12.6134 10.0099 12.6151 6.94375C12.6162 3.87137 10.1198 1.38062 7.03052 1.3795C3.94913 1.3795 1.44254 3.87363 1.44141 6.93925C1.44084 8.19081 1.80934 9.12794 2.42822 10.1084L1.8636 12.1604L3.97852 11.6086ZM10.4143 8.53506C10.3725 8.46531 10.2606 8.42369 10.0921 8.33988C9.92427 8.25606 9.09853 7.85162 8.94423 7.79594C8.7905 7.74025 8.6786 7.71213 8.56613 7.87975C8.45422 8.04681 8.13206 8.42369 8.03429 8.53506C7.93651 8.64644 7.83817 8.6605 7.67031 8.57669C7.50245 8.49288 6.961 8.31681 6.31952 7.747C5.82046 7.30375 5.48304 6.75644 5.38527 6.58881C5.28749 6.42175 5.37509 6.33119 5.45874 6.24794C5.53448 6.17313 5.6266 6.05275 5.71081 5.95487C5.79616 5.85813 5.82385 5.78838 5.88037 5.67644C5.93632 5.56506 5.90863 5.46719 5.86624 5.38338C5.82385 5.30013 5.48813 4.47719 5.34853 4.1425C5.21176 3.81681 5.07329 3.86069 4.97042 3.85562L4.64827 3.85C4.53636 3.85 4.35437 3.89162 4.20064 4.05925C4.04691 4.22687 3.61285 4.63075 3.61285 5.45369C3.61285 6.27663 4.21477 7.07144 4.29842 7.18281C4.38263 7.29419 5.48248 8.98281 7.16729 9.70675C7.56801 9.87887 7.88112 9.98181 8.12472 10.0589C8.52713 10.186 8.89337 10.168 9.18274 10.1252C9.50546 10.0774 10.1763 9.72081 10.3165 9.33044C10.4567 8.9395 10.4567 8.60481 10.4143 8.53506Z" fill="#48AA1A"/>
</svg>
